<svg width="500" height="500" viewBox="0 0 400 400" xmlns="http://www.w3.org/2000/svg">
  <rect width="500" height="500" fill="#FF5722"/>
  <polygon points="242.424,120.909 242.424,151.212 212.121,151.212 212.121,181.515 181.818,181.515 181.818,151.212 151.515,151.212 151.515,120.909 121.212,120.909 121.212,242.121 90.909,242.121 90.909,272.424 181.818,272.424 181.818,242.121 151.515,242.121 151.515,211.818 181.818,211.818 181.818,242.121 212.121,242.121 212.121,211.818 242.424,211.818 242.424,242.121 212.121,242.121 212.121,272.424 303.03,272.424 303.03,242.121 272.727,242.121 272.727,120.909" fill="#212121" stroke="black" stroke-width="2"/>
</svg>
